# xmcd CD database file
#
# Track frame offsets:
#	150
#	15117
#	36915
#
# Disc length: 749 seconds
#
# Revision: 0
# Processed by: cddbd v1.5.1PL2 Copyright (c) Steve Scherf et al.
# Submitted via: CDex 1.51
#
DISCID=1402eb03
DTITLE=Hella - Acoustics
DYEAR=2004
DGENRE=不明
TTITLE0=Women Of The 90's
TTITLE1=Welcome To The Jungle Baby(Your Gonna Live)
TTITLE2=Cafeteria Bananas
EXTD=YEAR: 2004
EXTT0=
EXTT1=
EXTT2=
PLAYORDER=
